<svg width="28" height="28" viewBox="0 0 28 28" fill="none" xmlns="http://www.w3.org/2000/svg">
<path d="M17.1556 5.03193H10.8416C10.0784 5.03162 9.3225 5.18172 8.61725 5.47363C7.91201 5.76555 7.27119 6.19356 6.73142 6.73323C6.19165 7.27289 5.7635 7.91362 5.47145 8.61881C5.17939 9.324 5.02914 10.0798 5.0293 10.8431V17.1571C5.02899 17.9205 5.17912 18.6764 5.47111 19.3817C5.7631 20.0871 6.19122 20.7279 6.73101 21.2677C7.27079 21.8075 7.91166 22.2356 8.61698 22.5276C9.32231 22.8196 10.0783 22.9697 10.8416 22.9694H17.1556C17.919 22.9697 18.675 22.8196 19.3803 22.5276C20.0856 22.2356 20.7265 21.8075 21.2663 21.2677C21.806 20.7279 22.2342 20.0871 22.5262 19.3817C22.8181 18.6764 22.9683 17.9205 22.968 17.1571V10.8431C22.9683 10.0797 22.8181 9.32377 22.5262 8.61845C22.2342 7.91313 21.806 7.27226 21.2663 6.73247C20.7265 6.19269 20.0856 5.76456 19.3803 5.47258C18.675 5.18059 17.919 5.03046 17.1556 5.03076V5.03193Z" fill="white" stroke="black" stroke-width="1.75"/>
<path d="M22.873 18.1863H24.7618C25.079 18.1863 25.3832 18.0603 25.6074 17.836C25.8317 17.6117 25.9577 17.3076 25.9577 16.9904V11.0113C25.9577 10.6941 25.8317 10.3899 25.6074 10.1657C25.3832 9.94142 25.079 9.81543 24.7618 9.81543H22.8718M5.12685 18.1863H3.23685C3.07981 18.1863 2.92431 18.1553 2.77922 18.0952C2.63414 18.0351 2.50231 17.9471 2.39127 17.836C2.28022 17.725 2.19214 17.5931 2.13204 17.4481C2.07195 17.303 2.04102 17.1475 2.04102 16.9904V11.0113C2.04102 10.6941 2.167 10.3899 2.39127 10.1657C2.61553 9.94142 2.91969 9.81543 3.23685 9.81543H5.12685" fill="white"/>
<path d="M22.873 18.1863H24.7618C25.079 18.1863 25.3832 18.0603 25.6074 17.836C25.8317 17.6117 25.9577 17.3076 25.9577 16.9904V11.0113C25.9577 10.6941 25.8317 10.3899 25.6074 10.1657C25.3832 9.94142 25.079 9.81543 24.7618 9.81543H22.8718M5.12685 18.1863H3.23685C3.07981 18.1863 2.92431 18.1553 2.77922 18.0952C2.63414 18.0351 2.50231 17.9471 2.39127 17.836C2.28022 17.725 2.19214 17.5931 2.13204 17.4481C2.07195 17.303 2.04102 17.1475 2.04102 16.9904V11.0113C2.04102 10.6941 2.167 10.3899 2.39127 10.1657C2.61553 9.94142 2.91969 9.81543 3.23685 9.81543H5.12685" stroke="black" stroke-width="1.75"/>
<path d="M3.22461 9.81507V5.03174M24.7613 9.81507L24.7496 5.03174M16.3671 12.8041H18.7576M10.4113 11.4286V13.8202M11.6071 17.5874C12.2431 18.2186 13.1027 18.5728 13.9988 18.5728C14.8948 18.5728 15.7545 18.2186 16.3904 17.5874" stroke="black" stroke-width="1.75" stroke-linecap="round" stroke-linejoin="round"/>
</svg>
