<svg width="132" height="132" viewBox="0 0 132 132" fill="none" xmlns="http://www.w3.org/2000/svg">
<path d="M98.4375 131.25C107.14 131.25 115.486 127.793 121.639 121.639C127.793 115.486 131.25 107.14 131.25 98.4375C131.25 89.7351 127.793 81.3891 121.639 75.2356C115.486 69.082 107.14 65.625 98.4375 65.625C89.7351 65.625 81.3891 69.082 75.2356 75.2356C69.082 81.3891 65.625 89.7351 65.625 98.4375C65.625 107.14 69.082 115.486 75.2356 121.639C81.3891 127.793 89.7351 131.25 98.4375 131.25ZM114.178 89.1281L101.662 109.997C101.113 110.914 100.361 111.693 99.4642 112.276C98.5677 112.858 97.5501 113.229 96.4889 113.359C95.4277 113.489 94.3508 113.375 93.3401 113.027C92.3294 112.678 91.4115 112.104 90.6562 111.347L83.4 104.1C82.5198 103.22 82.0253 102.026 82.0253 100.781C82.0253 99.5365 82.5198 98.3427 83.4 97.4625C84.2802 96.5823 85.474 96.0878 86.7188 96.0878C87.9635 96.0878 89.1573 96.5823 90.0375 97.4625L95.1656 102.6L106.134 84.3094C106.451 83.7812 106.868 83.3205 107.363 82.9537C107.857 82.5868 108.419 82.3209 109.016 82.1712C109.613 82.0214 110.234 81.9908 110.843 82.081C111.452 82.1712 112.037 82.3805 112.566 82.6969C113.094 83.0133 113.554 83.4306 113.921 83.925C114.288 84.4195 114.554 84.9813 114.704 85.5785C114.854 86.1757 114.884 86.7966 114.794 87.4056C114.704 88.0147 114.495 88.6 114.178 89.1281ZM84.375 28.125C84.375 35.5842 81.4118 42.7379 76.1374 48.0124C70.8629 53.2868 63.7092 56.25 56.25 56.25C48.7908 56.25 41.6371 53.2868 36.3626 48.0124C31.0882 42.7379 28.125 35.5842 28.125 28.125C28.125 20.6658 31.0882 13.5121 36.3626 8.23762C41.6371 2.96316 48.7908 0 56.25 0C63.7092 0 70.8629 2.96316 76.1374 8.23762C81.4118 13.5121 84.375 20.6658 84.375 28.125ZM56.25 46.875C61.2228 46.875 65.9919 44.8996 69.5082 41.3833C73.0246 37.8669 75 33.0978 75 28.125C75 23.1522 73.0246 18.3831 69.5082 14.8667C65.9919 11.3504 61.2228 9.375 56.25 9.375C51.2772 9.375 46.5081 11.3504 42.9917 14.8667C39.4754 18.3831 37.5 23.1522 37.5 28.125C37.5 33.0978 39.4754 37.8669 42.9917 41.3833C46.5081 44.8996 51.2772 46.875 56.25 46.875Z" fill="#00B890"/>
<path d="M58.65 112.5C57.5765 109.455 56.8562 106.297 56.5031 103.088H9.375C9.38437 100.781 10.8188 93.8437 17.175 87.4875C23.2875 81.375 34.7906 75 56.25 75C58.6875 75 61 75.0781 63.1875 75.2344C65.3063 72.0375 67.8375 69.1406 70.725 66.6281C66.35 65.9719 61.525 65.6375 56.25 65.625C9.375 65.625 0 93.75 0 103.125C0 112.5 9.375 112.5 9.375 112.5H58.65Z" fill="#00B890"/>
</svg>
