<svg width="90" height="84" viewBox="0 0 90 84" fill="none" xmlns="http://www.w3.org/2000/svg">
<path d="M70 46.2025H67.1667L58.8333 54.602H66.7917L74.1667 63.0014H15.8333L23.25 54.602H31.7917L23.4583 46.2025H20L7.5 58.8017V75.6006C7.5 77.8282 8.37797 79.9647 9.94078 81.5399C11.5036 83.1151 13.6232 84 15.8333 84H74.1667C76.3768 84 78.4964 83.1151 80.0592 81.5399C81.622 79.9647 82.5 77.8282 82.5 75.6006V58.8017L70 46.2025ZM65.8333 24.994L45.2083 45.7826L30.4167 30.9156L51.0833 10.127L65.8333 24.994ZM48.1667 1.22355L21.625 27.9758C21.2387 28.3643 20.9323 28.8258 20.7232 29.3338C20.5141 29.8419 20.4065 30.3865 20.4065 30.9366C20.4065 31.4866 20.5141 32.0312 20.7232 32.5393C20.9323 33.0473 21.2387 33.5088 21.625 33.8974L42.25 54.602C43.875 56.3239 46.5 56.3239 48.125 54.602L74.625 27.9758C75.0113 27.5872 75.3177 27.1257 75.5268 26.6177C75.7359 26.1096 75.8435 25.565 75.8435 25.015C75.8435 24.4649 75.7359 23.9203 75.5268 23.4122C75.3177 22.9042 75.0113 22.4427 74.625 22.0542L54 1.26555C53.6241 0.869106 53.173 0.552809 52.6735 0.335431C52.174 0.118052 51.6362 0.00402147 51.0921 0.000104463C50.5481 -0.00381255 50.0088 0.102464 49.5062 0.312628C49.0037 0.522792 48.5482 0.832562 48.1667 1.22355Z" fill="black"/>
</svg>
